<svg xmlns="http://www.w3.org/2000/svg" width="1200" height="630" viewBox="0 0 1200 630">
 <rect width="1200" height="630" fill="#111613"/>
 <path d="M72 166h1056" stroke="#2c3930"/>
 <g transform="translate(70 60) scale(1.55)" fill="#a1ce96"><path d="M5 16 24 5l14 8-8 5-6-4-10 6v11l-9 5Z"/><path d="M43 32 24 43l-14-8 8-5 6 4 10-6V17l9-5Z"/></g>
 <text x="72" y="258" fill="#a1ce96" font-family="monospace" font-size="19" letter-spacing="3">INDEPENDENT SECURITY RESEARCH</text>
 <text x="67" y="365" fill="#eff3ee" font-family="sans-serif" font-size="76" font-weight="600" letter-spacing="-3">David Carliez</text>
 <text x="72" y="425" fill="#9bab9e" font-family="sans-serif" font-size="26">Windows internals · Vulnerability research · AI security</text>
 <rect x="72" y="493" width="1056" height="66" rx="6" fill="#0c110e" stroke="#2c3930"/>
 <text x="95" y="534" fill="#a1ce96" font-family="monospace" font-size="20">david@research</text>
 <text x="310" y="534" fill="#d6ded7" font-family="monospace" font-size="20">$ ls research/</text><path d="M505 516h10v22h-10Z" fill="#a1ce96"/>
</svg>
